<?xml version="1.0" encoding="UTF-8" standalone="no"?>
<!-- Generator: Adobe Illustrator 16.0.0, SVG Export Plug-In . SVG Version: 6.00 Build 0)  -->

<svg
   xmlns:dc="http://purl.org/dc/elements/1.1/"
   xmlns:cc="http://creativecommons.org/ns#"
   xmlns:rdf="http://www.w3.org/1999/02/22-rdf-syntax-ns#"
   xmlns:svg="http://www.w3.org/2000/svg"
   xmlns="http://www.w3.org/2000/svg"
   xmlns:sodipodi="http://sodipodi.sourceforge.net/DTD/sodipodi-0.dtd"
   xmlns:inkscape="http://www.inkscape.org/namespaces/inkscape"
   version="1.1"
   id="Layer_1"
   x="0px"
   y="0px"
   width="50px"
   height="50px"
   viewBox="0 0 50 50"
   enable-background="new 0 0 50 50"
   xml:space="preserve"
   inkscape:version="0.91 r13725"
   sodipodi:docname="github_round-filled.svg"><metadata
     id="metadata13"><rdf:RDF><cc:Work
         rdf:about=""><dc:format>image/svg+xml</dc:format><dc:type
           rdf:resource="http://purl.org/dc/dcmitype/StillImage" /><dc:title></dc:title></cc:Work></rdf:RDF></metadata><defs
     id="defs11" /><sodipodi:namedview
     pagecolor="#ffffff"
     bordercolor="#666666"
     borderopacity="1"
     objecttolerance="10"
     gridtolerance="10"
     guidetolerance="10"
     inkscape:pageopacity="0"
     inkscape:pageshadow="2"
     inkscape:window-width="1920"
     inkscape:window-height="988"
     id="namedview9"
     showgrid="false"
     inkscape:zoom="8"
     inkscape:cx="28.219854"
     inkscape:cy="21.413663"
     inkscape:window-x="1440"
     inkscape:window-y="0"
     inkscape:window-maximized="1"
     inkscape:current-layer="Layer_1" /><path
     style="color:#000000;font-style:normal;font-variant:normal;font-weight:normal;font-stretch:normal;font-size:medium;line-height:normal;font-family:sans-serif;text-indent:0;text-align:start;text-decoration:none;text-decoration-line:none;text-decoration-style:solid;text-decoration-color:#000000;letter-spacing:normal;word-spacing:normal;text-transform:none;direction:ltr;block-progression:tb;writing-mode:lr-tb;baseline-shift:baseline;text-anchor:start;white-space:normal;clip-rule:nonzero;display:inline;overflow:visible;visibility:visible;opacity:1;isolation:auto;mix-blend-mode:normal;color-interpolation:sRGB;color-interpolation-filters:linearRGB;solid-color:#000000;solid-opacity:1;fill-opacity:1;fill-rule:nonzero;stroke:none;stroke-width:1;stroke-linecap:butt;stroke-linejoin:miter;stroke-miterlimit:4;stroke-dasharray:none;stroke-dashoffset:0;stroke-opacity:1;color-rendering:auto;image-rendering:auto;shape-rendering:auto;text-rendering:auto;enable-background:accumulate"
     d="m 19.625,23.5 c -1.411505,0 -2.571901,0.604415 -3.339844,1.535156 C 15.517214,25.965897 15.125,27.203217 15.125,28.5 c 0,2.543013 1.243873,4.153401 2.941406,4.998047 1.697534,0.844645 3.807467,1.017578 5.746094,1.017578 l 2.625,0 c 1.938583,0 4.050488,-0.173055 5.748047,-1.017578 C 33.883106,32.653524 35.126953,31.043482 35.126953,28.5 35.126411,27.203279 34.734849,25.965859 33.966797,25.035156 33.198745,24.104453 32.036505,23.5 30.625,23.5 c -1.091782,0 -2.101299,0.194348 -3.115234,0.332031 l -0.0039,0.002 -0.0039,0 C 26.720928,23.954216 25.934079,24 25.125,24 24.315921,24 23.529072,23.95422 22.748047,23.833984 l -0.0039,0 -0.0039,-0.002 C 21.740248,23.694238 20.716782,23.5 19.625,23.5 Z m 0,1 c 0.970218,0 1.946502,0.182012 2.978516,0.324219 l -0.0078,-0.002 C 23.438678,24.952034 24.278079,25 25.125,25 25.971921,25 26.811322,24.95203 27.654297,24.822266 28.698323,24.680166 29.657993,24.5 30.625,24.5 c 1.135495,0 1.974864,0.450328 2.570312,1.171875 0.595449,0.721547 0.931183,1.733846 0.931641,2.828125 0,2.238518 -0.945481,3.385539 -2.388672,4.103516 -1.443191,0.717977 -3.426364,0.912109 -5.300781,0.912109 l -2.625,0 c -1.874373,0 -3.857565,-0.194005 -5.300781,-0.912109 C 17.068502,31.885411 16.125,30.737987 16.125,28.5 c 0,-1.094217 0.33438,-2.106616 0.929688,-2.828125 C 17.649995,24.950366 18.489505,24.5 19.625,24.5 Z m 0.5,0.5 c -0.923365,0 -1.593836,0.63366 -1.96875,1.335938 C 17.781336,27.038215 17.625,27.842734 17.625,28.5 c 0,0.657266 0.156336,1.461785 0.53125,2.164062 C 18.531164,31.36634 19.201635,32 20.125,32 21.048365,32 21.718836,31.36634 22.09375,30.664062 22.468664,29.961785 22.625,29.157266 22.625,28.5 c 0,-0.657266 -0.156336,-1.461785 -0.53125,-2.164062 C 21.718836,25.63366 21.048365,25 20.125,25 Z m 10,0 c -0.923365,0 -1.593836,0.63366 -1.96875,1.335938 C 27.781336,27.038215 27.625,27.842734 27.625,28.5 c 0,0.657266 0.156336,1.461785 0.53125,2.164062 C 28.531164,31.36634 29.201635,32 30.125,32 31.048365,32 31.718836,31.36634 32.09375,30.664062 32.468664,29.961785 32.625,29.157266 32.625,28.5 c 0,-0.657266 -0.156336,-1.461785 -0.53125,-2.164062 C 31.718836,25.63366 31.048365,25 30.125,25 Z m -10,1 c 0.482635,0 0.812352,0.294169 1.085938,0.806641 C 21.484523,27.319113 21.625,28.016266 21.625,28.5 c 0,0.483734 -0.140477,1.180887 -0.414062,1.693359 C 20.937352,30.705831 20.607635,31 20.125,31 19.642365,31 19.312648,30.705831 19.039062,30.193359 18.765477,29.680887 18.625,28.983734 18.625,28.5 c 0,-0.483734 0.140477,-1.180887 0.414062,-1.693359 C 19.312648,26.294169 19.642365,26 20.125,26 Z m 10,0 c 0.482635,0 0.812352,0.294169 1.085938,0.806641 C 31.484523,27.319113 31.625,28.016266 31.625,28.5 c 0,0.483734 -0.140477,1.180887 -0.414062,1.693359 C 30.937352,30.705831 30.607635,31 30.125,31 29.642365,31 29.312648,30.705831 29.039062,30.193359 28.765477,29.680887 28.625,28.983734 28.625,28.5 c 0,-0.483734 0.140477,-1.180887 0.414062,-1.693359 C 29.312648,26.294169 29.642365,26 30.125,26 Z"
     id="path5"
     inkscape:connector-curvature="0" /><path
     style="color:#000000;font-style:normal;font-variant:normal;font-weight:normal;font-stretch:normal;font-size:medium;line-height:normal;font-family:sans-serif;text-indent:0;text-align:start;text-decoration:none;text-decoration-line:none;text-decoration-style:solid;text-decoration-color:#000000;letter-spacing:normal;word-spacing:normal;text-transform:none;direction:ltr;block-progression:tb;writing-mode:lr-tb;baseline-shift:baseline;text-anchor:start;white-space:normal;clip-rule:nonzero;display:inline;overflow:visible;visibility:visible;opacity:1;isolation:auto;mix-blend-mode:normal;color-interpolation:sRGB;color-interpolation-filters:linearRGB;solid-color:#000000;solid-opacity:1;fill-opacity:1;fill-rule:nonzero;stroke:none;stroke-width:1;stroke-linecap:butt;stroke-linejoin:miter;stroke-miterlimit:4;stroke-dasharray:none;stroke-dashoffset:0;stroke-opacity:1;color-rendering:auto;image-rendering:auto;shape-rendering:auto;text-rendering:auto;enable-background:accumulate"
     d="M 25.00727,0.00979873 C 11.21453,0.00979873 0.02433766,11.204232 0.02433766,25 c 0,13.795768 11.19019234,24.990201 24.98293234,24.990201 13.792739,0 24.982931,-11.194433 24.982931,-24.990201 0,-13.795768 -11.190192,-24.99020127 -24.982931,-24.99020127 z m 0,0.9800079 C 38.270555,0.98980663 49.010478,11.73383 49.010478,25 c 0,13.26617 -10.739923,24.010193 -24.003208,24.010193 C 11.743984,49.010193 1.0040604,38.26617 1.0040604,25 1.0040604,11.73383 11.743984,0.98980663 25.00727,0.98980663 Z M 14.417843,13.729909 l -0.13586,0.2718 c -0.555438,1.111199 -0.832381,2.333646 -0.832381,3.556356 0,0.844315 0.156181,1.694467 0.399925,2.517012 -1.426816,1.775842 -2.068516,3.91564 -2.068516,6.149933 0,1.731737 0.164798,3.629158 1.002686,5.288597 l 0,0.002 c 1.12954,2.227532 3.278015,3.419046 5.595135,4.044447 2.317121,0.625354 4.838479,0.710077 6.873369,0.710077 2.006622,0 4.429502,-0.09622 6.647571,-0.729265 2.21807,-0.633047 4.263367,-1.830582 5.350206,-4.029134 l 0,-0.002 c 0.818337,-1.670645 0.98355,-3.552986 0.98355,-5.284723 0,-2.235021 -0.641491,-4.387683 -2.068517,-6.178644 0.243341,-0.808387 0.399926,-1.644539 0.399926,-2.488301 0,-1.22271 -0.277104,-2.444435 -0.832381,-3.556356 l -0.135861,-0.2718 -0.302336,0 c -2.446054,0 -4.10853,1.067403 -5.878337,2.436622 -1.36404,-0.309343 -2.769378,-0.476606 -4.163821,-0.476606 -1.547564,0 -3.094177,0.18256 -4.60776,0.522543 -1.781919,-1.383838 -3.445329,-2.482559 -5.924261,-2.482559 l -0.302337,0 z m 20.520601,1.058485 c 0.382586,0.881558 0.64677,1.815902 0.64677,2.769671 0,0.821492 -0.130233,1.641699 -0.388444,2.417481 l -0.08611,0.262228 0.177958,0.210549 c 1.384751,1.630789 1.965185,3.630797 1.965185,5.776687 0,1.666931 -0.172058,3.398614 -0.884047,4.852187 l 0.002,0 c -0.934329,1.890042 -2.679411,2.933862 -4.739792,3.521904 -2.060442,0.588042 -4.405751,0.690982 -6.379741,0.690982 -2.006469,0 -4.45258,-0.0915 -6.616957,-0.675669 -2.163418,-0.583915 -4.009653,-1.635527 -4.977068,-3.541045 -0.723789,-1.433466 -0.897442,-3.181428 -0.897442,-4.848359 0,-2.14589 0.579371,-4.13104 1.963273,-5.746062 L 14.9039,20.270313 14.81779,20.008085 c -0.258677,-0.79099 -0.388445,-1.629566 -0.388445,-2.45002 0,-0.953144 0.264783,-1.887358 0.64677,-2.767757 2.041853,0.108454 3.43114,0.970204 5.143545,2.312207 l 0.185611,0.14547 0.229622,-0.0555 c 1.505189,-0.357801 3.059848,-0.522544 4.617331,-0.522544 1.404531,0 2.821118,0.149841 4.171474,0.476605 l 0.229624,0.0555 0.187525,-0.145471 c 1.694231,-1.324601 3.081668,-2.161934 5.09762,-2.268182 z"
     id="path7"
     inkscape:connector-curvature="0" /><path
     style="opacity:0.98000004;fill:#008000;fill-opacity:1;fill-rule:nonzero;stroke:#000000;stroke-width:0.125;stroke-opacity:1"
     d="M 23.457354,48.87672 C 18.984441,48.627862 14.350416,46.91899 10.644854,44.1519 9.4718153,43.275946 7.4685117,41.353772 6.5112349,40.185686 0.85957132,33.28942 -0.49598444,23.841704 2.9874651,15.626329 6.0494477,8.4049419 12.61871,3.0632225 20.332354,1.522534 c 6.446086,-1.28751218 13.154598,0.1523619 18.58422,3.9888033 1.316568,0.9302559 3.546016,3.0186254 4.601487,4.3103071 2.758441,3.3757686 4.542866,7.4490856 5.18277,11.8307356 0.252284,1.727475 0.252441,4.988681 3.75e-4,6.717915 -1.464782,10.046772 -8.955412,18.005062 -18.905899,20.086245 -0.804597,0.168285 -2.05353,0.336078 -2.775405,0.372876 -0.721875,0.0368 -1.48125,0.08127 -1.6875,0.09883 -0.20625,0.01756 -1.05,-0.0056 -1.875,-0.05153 l -4.8e-5,0 z m 5.5625,-12.756909 c 3.066516,-0.319221 5.415226,-1.261602 6.936968,-2.783345 1.018083,-1.018082 1.539093,-1.963836 1.949144,-3.538139 0.332663,-1.277188 0.456335,-3.921438 0.245451,-5.248002 -0.198523,-1.248818 -0.816318,-2.90076 -1.429791,-3.82317 -0.457097,-0.687284 -0.473649,-0.746864 -0.347257,-1.25 0.400142,-1.592879 0.284838,-3.289026 -0.331877,-4.881983 l -0.347017,-0.896335 -0.792748,0.02297 c -1.576522,0.04567 -2.882992,0.531472 -4.548451,1.691307 l -0.978077,0.681137 -0.896923,-0.186774 c -1.315896,-0.27402 -5.172119,-0.266002 -6.677898,0.01388 l -1.155977,0.214868 -0.781523,-0.576034 c -1.504488,-1.108903 -2.983115,-1.7112 -4.58958,-1.869498 l -0.878938,-0.08661 -0.325436,0.734876 c -0.659063,1.488245 -0.833563,3.216314 -0.489005,4.842595 l 0.181724,0.857719 -0.382779,0.55635 c -1.077723,1.566416 -1.607843,3.479032 -1.609134,5.805589 -0.0028,5.005763 1.749299,7.63878 6.006196,9.026088 2.51888,0.820895 7.225014,1.110769 11.242928,0.692509 z"
     id="path4284"
     inkscape:connector-curvature="0" /><path
     style="opacity:0.98000004;fill:#008000;fill-opacity:1;fill-rule:nonzero;stroke:#000000;stroke-width:0.125;stroke-opacity:1"
     d="m 22.144854,33.381284 c -4.036429,-0.318458 -5.882867,-1.799012 -5.917551,-4.744947 -0.016,-1.359302 0.250817,-2.162513 0.992346,-2.987272 0.989847,-1.100948 1.905383,-1.257238 4.898252,-0.836176 1.79385,0.252374 4.2904,0.253787 5.934025,0.0034 2.009246,-0.306137 3.288554,-0.289044 3.99593,0.05339 1.25142,0.605802 1.870036,1.724037 1.945468,3.5167 0.04221,1.003257 0.0067,1.30229 -0.228628,1.927352 -0.510045,1.354504 -1.725326,2.296381 -3.557342,2.75704 -1.5487,0.389421 -5.253931,0.53214 -8.0625,0.310555 z m -1.014872,-1.626608 c 1.966307,-1.105126 2.000469,-5.304799 0.05294,-6.508437 -0.490179,-0.302948 -1.476585,-0.338213 -1.990075,-0.07115 -1.736241,0.903014 -2.140329,4.193025 -0.740424,6.028395 0.609586,0.799209 1.800185,1.044301 2.677557,0.55119 z m 9.999999,0 c 1.966308,-1.105126 2.00047,-5.304799 0.05294,-6.508437 -0.490179,-0.302948 -1.476585,-0.338213 -1.990075,-0.07115 -1.736241,0.903014 -2.140329,4.193025 -0.740424,6.028395 0.609586,0.799209 1.800185,1.044301 2.677556,0.55119 z"
     id="path4286"
     inkscape:connector-curvature="0" /></svg>