<?xml version="1.0" encoding="UTF-8" standalone="no"?>
<!-- Generator: Adobe Illustrator 16.0.0, SVG Export Plug-In . SVG Version: 6.00 Build 0)  -->

<svg
   xmlns:dc="http://purl.org/dc/elements/1.1/"
   xmlns:cc="http://creativecommons.org/ns#"
   xmlns:rdf="http://www.w3.org/1999/02/22-rdf-syntax-ns#"
   xmlns:svg="http://www.w3.org/2000/svg"
   xmlns="http://www.w3.org/2000/svg"
   xmlns:sodipodi="http://sodipodi.sourceforge.net/DTD/sodipodi-0.dtd"
   xmlns:inkscape="http://www.inkscape.org/namespaces/inkscape"
   version="1.1"
   id="Layer_1"
   x="0px"
   y="0px"
   width="50px"
   height="50px"
   viewBox="0 0 50 50"
   enable-background="new 0 0 50 50"
   xml:space="preserve"
   inkscape:version="0.91 r13725"
   sodipodi:docname="in_round-filled.svg"><metadata
     id="metadata9"><rdf:RDF><cc:Work
         rdf:about=""><dc:format>image/svg+xml</dc:format><dc:type
           rdf:resource="http://purl.org/dc/dcmitype/StillImage" /><dc:title></dc:title></cc:Work></rdf:RDF></metadata><defs
     id="defs7" /><sodipodi:namedview
     pagecolor="#ffffff"
     bordercolor="#666666"
     borderopacity="1"
     objecttolerance="10"
     gridtolerance="10"
     guidetolerance="10"
     inkscape:pageopacity="0"
     inkscape:pageshadow="2"
     inkscape:window-width="1440"
     inkscape:window-height="856"
     id="namedview5"
     showgrid="false"
     inkscape:zoom="5.6568543"
     inkscape:cx="7.4072603"
     inkscape:cy="31.852988"
     inkscape:window-x="1665"
     inkscape:window-y="91"
     inkscape:window-maximized="0"
     inkscape:current-layer="Layer_1" /><path
     style="color:#000000;font-style:normal;font-variant:normal;font-weight:normal;font-stretch:normal;font-size:medium;line-height:normal;font-family:sans-serif;text-indent:0;text-align:start;text-decoration:none;text-decoration-line:none;text-decoration-style:solid;text-decoration-color:#000000;letter-spacing:normal;word-spacing:normal;text-transform:none;direction:ltr;block-progression:tb;writing-mode:lr-tb;baseline-shift:baseline;text-anchor:start;white-space:normal;clip-rule:nonzero;display:inline;overflow:visible;visibility:visible;opacity:1;isolation:auto;mix-blend-mode:normal;color-interpolation:sRGB;color-interpolation-filters:linearRGB;solid-color:#000000;solid-opacity:1;fill-opacity:1;fill-rule:nonzero;stroke:none;stroke-width:1;stroke-linecap:butt;stroke-linejoin:miter;stroke-miterlimit:4;stroke-dasharray:none;stroke-dashoffset:0;stroke-opacity:1;color-rendering:auto;image-rendering:auto;shape-rendering:auto;text-rendering:auto;enable-background:accumulate"
     d="m 25.013242,0.02966102 c -13.793098,0 -24.98358098,11.18850098 -24.98358098,24.97695998 0,13.788458 11.19048298,24.97696 24.98358098,24.97696 13.793098,0 24.98358,-11.188502 24.98358,-24.97696 0,-13.788459 -11.190482,-24.97695998 -24.98358,-24.97695998 z m 0,0.97948858 c 13.26363,0 24.003832,10.7383304 24.003832,23.9974714 0,13.25914 -10.740202,23.997471 -24.003832,23.997471 -13.26363,0 -24.0038327,-10.738331 -24.0038327,-23.997471 0,-13.259141 10.7402027,-23.9974714 24.0038327,-23.9974714 z m -7.929838,9.9881064 c -1.93029,0 -3.337267,1.372946 -3.337267,3.106815 0,1.697773 1.353401,3.108728 3.276032,3.108728 l 0.03061,0 c 1.976513,0 3.355643,-1.408707 3.337268,-3.112555 -0.01814,-1.717634 -1.362638,-3.102988 -3.30665,-3.102988 z m 0,0.979488 c 1.516458,0 2.313684,0.88089 2.326903,2.133066 0.01299,1.203274 -0.812816,2.123501 -2.357521,2.123501 l -0.03061,0 c -1.475134,0 -2.296285,-0.919892 -2.296285,-2.12924 0,-1.235941 0.858691,-2.127327 2.35752,-2.127327 z m 14.864619,5.972585 c -2.089143,0 -3.231211,0.877324 -4.056771,1.77341 l 0,-1.423319 -6.039229,0 0.02296,0.510787 c 0,0 0.06171,1.402225 0,15.143813 l -0.0039,0.491657 6.020093,0 0,-8.953138 c 0,-0.422076 0.04886,-0.81677 0.135864,-1.061751 0.316056,-0.772463 0.958606,-1.524711 2.129805,-1.524711 0.785769,0 1.227984,0.256402 1.555732,0.736529 0.327749,0.480127 0.510924,1.243169 0.510924,2.201937 l 0,8.601134 6.016266,0 0,-0.489744 0,-8.691049 c 0,-2.41327 -0.648978,-4.255627 -1.785362,-5.490492 -1.136381,-1.234865 -2.738441,-1.825063 -4.506459,-1.825063 z M 14.037,18.297507 l 0,16.14817 6.031575,0 0,-0.489744 0,-15.658426 -6.031575,0 z m 17.911023,0.63131 c 1.554307,0 2.852885,0.494386 3.786955,1.509408 0.934072,1.015021 1.525116,2.587359 1.525116,4.826659 l 0,8.201305 -4.05677,0 0,-7.621646 c 0,-1.076609 -0.186234,-2.029678 -0.681231,-2.754812 -0.494996,-0.725134 -1.329591,-1.163143 -2.365173,-1.163143 -1.612072,0 -2.620999,1.109173 -3.040665,2.140719 l -0.0039,0.0096 -0.0039,0.0076 c -0.156153,0.429618 -0.197098,0.915915 -0.197098,1.408015 l 0,7.97365 -4.056771,0 c 0.05035,-12.104668 0.0018,-14.085048 -0.002,-14.187281 l 4.058685,0 0,3.345948 0.901291,-1.411841 c 0.633746,-0.991331 1.626704,-2.284198 4.135325,-2.284198 z m -16.931276,0.348179 4.07208,0 0,14.189193 -4.07208,0 0,-14.189193 z"
     id="path3"
     inkscape:connector-curvature="0" /><path
     style="fill:#008080;fill-opacity:1;fill-rule:nonzero;stroke:#000000;stroke-width:0.17677669;stroke-opacity:1"
     d="M 23.211097,48.870273 C 17.152168,48.262391 12.321266,46.004682 8.1679957,41.83992 4.5672148,38.229176 2.5133162,34.401547 1.519579,29.449981 c -0.4935861,-2.459427 -0.4935861,-6.393285 0,-8.852712 C 3.2353919,12.047765 8.9783303,5.3413604 17.023913,2.4918457 19.86893,1.4842217 21.63171,1.1909632 24.890475,1.183153 c 5.240068,-0.012559 9.17154,1.1709735 13.611806,4.0977073 1.818421,1.198584 4.86644,4.2069242 6.122268,6.0425707 1.824891,2.667442 3.203521,5.921334 3.894691,9.192388 0.492184,2.329321 0.447555,6.933868 -0.09067,9.354807 -2.439278,10.971856 -11.481314,18.566487 -22.617936,18.99737 -1.040835,0.04027 -2.210626,0.0413 -2.599535,0.0023 l 0,-3e-6 z m -3.093592,-22.520823 0,-8.131728 -3.093592,0 -3.093593,0 0,8.131728 0,8.131728 3.093593,0 3.093592,0 0,-8.131728 z m 7.809895,3.226175 c 0.04953,-4.287356 0.09603,-4.977577 0.36902,-5.477085 0.364437,-0.666839 1.120863,-1.107847 1.900199,-1.107847 0.807206,0 1.223406,0.29124 1.599293,1.119117 0.301771,0.664636 0.335024,1.21025 0.338526,5.554203 l 0.0039,4.817165 3.093592,0 3.093592,0 -0.0031,-5.170718 c -0.0039,-6.574981 -0.183761,-7.572912 -1.702946,-9.448752 -1.742237,-2.151256 -5.673084,-2.614266 -7.983787,-0.9404 l -0.740016,0.536068 0,-0.619827 0,-0.619827 -3.049398,7.8e-5 -3.049398,7.8e-5 0,8.131691 0,8.131691 3.036925,-4.1e-5 3.036925,-4.1e-5 0.05667,-4.905553 z m -9.077236,-12.75686 c 1.951845,-0.995757 2.112706,-3.855774 0.294855,-5.242316 -1.37141,-1.046026 -3.920045,-0.690787 -4.898063,0.682712 -0.508944,0.714747 -0.653425,2.486051 -0.263877,3.235075 0.877042,1.686378 3.016521,2.268616 4.867085,1.324529 z"
     id="path4139"
     inkscape:connector-curvature="0" /></svg>