<?xml version="1.0" encoding="UTF-8" standalone="no"?>
<!-- Generator: Adobe Illustrator 16.0.0, SVG Export Plug-In . SVG Version: 6.00 Build 0)  -->

<svg
   xmlns:dc="http://purl.org/dc/elements/1.1/"
   xmlns:cc="http://creativecommons.org/ns#"
   xmlns:rdf="http://www.w3.org/1999/02/22-rdf-syntax-ns#"
   xmlns:svg="http://www.w3.org/2000/svg"
   xmlns="http://www.w3.org/2000/svg"
   xmlns:sodipodi="http://sodipodi.sourceforge.net/DTD/sodipodi-0.dtd"
   xmlns:inkscape="http://www.inkscape.org/namespaces/inkscape"
   version="1.1"
   id="Capa_1"
   x="0px"
   y="0px"
   width="475.082px"
   height="475.081px"
   viewBox="0 0 475.082 475.081"
   style="enable-background:new 0 0 475.082 475.081;"
   xml:space="preserve"
   inkscape:version="0.91 r13725"
   sodipodi:docname="quote.svg"><metadata
     id="metadata15"><rdf:RDF><cc:Work
         rdf:about=""><dc:format>image/svg+xml</dc:format><dc:type
           rdf:resource="http://purl.org/dc/dcmitype/StillImage" /></cc:Work></rdf:RDF></metadata><defs
     id="defs13" /><sodipodi:namedview
     pagecolor="#ffffff"
     bordercolor="#666666"
     borderopacity="1"
     objecttolerance="10"
     gridtolerance="10"
     guidetolerance="10"
     inkscape:pageopacity="0"
     inkscape:pageshadow="2"
     inkscape:window-width="640"
     inkscape:window-height="480"
     id="namedview11"
     showgrid="false"
     inkscape:zoom="0.4967574"
     inkscape:cx="237.541"
     inkscape:cy="237.5405"
     inkscape:window-x="374"
     inkscape:window-y="236"
     inkscape:window-maximized="0"
     inkscape:current-layer="Capa_1" /><g
     id="g3"
     transform="matrix(-1,0,0,-1,475.081,475.082)"><g
       id="g5"><path
         d="m 164.454,36.547 -109.636,0 c -15.229,0 -28.171,5.33 -38.832,15.987 C 5.33,63.193 0,76.135 0,91.365 l 0,109.632 c 0,15.229 5.327,28.169 15.986,38.826 10.66,10.656 23.606,15.988 38.832,15.988 l 63.953,0 c 7.611,0 14.084,2.666 19.414,7.994 5.33,5.325 7.994,11.8 7.994,19.417 l 0,9.131 c 0,20.177 -7.139,37.397 -21.413,51.675 -14.275,14.271 -31.499,21.409 -51.678,21.409 l -18.27,0 c -4.952,0 -9.233,1.813 -12.851,5.427 -3.615,3.614 -5.424,7.898 -5.424,12.847 l 0,36.549 c 0,4.941 1.809,9.233 5.424,12.848 3.621,3.613 7.898,5.427 12.851,5.427 l 18.271,0 c 19.797,0 38.688,-3.86 56.676,-11.566 17.987,-7.707 33.546,-18.131 46.68,-31.265 13.131,-13.135 23.553,-28.691 31.261,-46.679 7.707,-17.987 11.562,-36.877 11.562,-56.671 l 0,-200.993 c 0,-15.23 -5.33,-28.171 -15.987,-38.828 C 192.624,41.876 179.679,36.547 164.454,36.547 Z"
         id="path7"
         inkscape:connector-curvature="0" /><path
         d="M 459.089,52.534 C 448.433,41.877 435.49,36.547 420.261,36.547 l -109.632,0 c -15.229,0 -28.171,5.33 -38.828,15.987 -10.656,10.66 -15.984,23.601 -15.984,38.831 l 0,109.632 c 0,15.229 5.328,28.169 15.984,38.826 10.657,10.656 23.6,15.988 38.828,15.988 l 63.953,0 c 7.611,0 14.089,2.666 19.418,7.994 5.324,5.328 7.994,11.8 7.994,19.417 l 0,9.131 c 0,20.177 -7.139,37.397 -21.416,51.675 -14.274,14.271 -31.494,21.409 -51.675,21.409 l -18.274,0 c -4.948,0 -9.233,1.813 -12.847,5.427 -3.617,3.614 -5.428,7.898 -5.428,12.847 l 0,36.549 c 0,4.941 1.811,9.233 5.428,12.848 3.613,3.613 7.898,5.427 12.847,5.427 l 18.274,0 c 19.794,0 38.684,-3.86 56.674,-11.566 17.984,-7.707 33.541,-18.131 46.676,-31.265 13.134,-13.135 23.562,-28.695 31.265,-46.679 7.706,-17.983 11.563,-36.877 11.563,-56.671 l 0,-200.993 C 475.078,76.131 469.753,63.19 459.089,52.534 Z"
         id="path9"
         inkscape:connector-curvature="0" /></g></g></svg>