<?xml version="1.0" encoding="UTF-8" standalone="no"?>
<!-- Generator: Adobe Illustrator 16.0.0, SVG Export Plug-In . SVG Version: 6.00 Build 0)  -->

<svg
   xmlns:dc="http://purl.org/dc/elements/1.1/"
   xmlns:cc="http://creativecommons.org/ns#"
   xmlns:rdf="http://www.w3.org/1999/02/22-rdf-syntax-ns#"
   xmlns:svg="http://www.w3.org/2000/svg"
   xmlns="http://www.w3.org/2000/svg"
   xmlns:sodipodi="http://sodipodi.sourceforge.net/DTD/sodipodi-0.dtd"
   xmlns:inkscape="http://www.inkscape.org/namespaces/inkscape"
   version="1.1"
   id="Layer_1"
   x="0px"
   y="0px"
   width="50px"
   height="50px"
   viewBox="0 0 50 50"
   enable-background="new 0 0 50 50"
   xml:space="preserve"
   inkscape:version="0.91 r13725"
   sodipodi:docname="vk_round-filled.svg"><metadata
     id="metadata9"><rdf:RDF><cc:Work
         rdf:about=""><dc:format>image/svg+xml</dc:format><dc:type
           rdf:resource="http://purl.org/dc/dcmitype/StillImage" /><dc:title /></cc:Work></rdf:RDF></metadata><defs
     id="defs7" /><sodipodi:namedview
     pagecolor="#ffffff"
     bordercolor="#666666"
     borderopacity="1"
     objecttolerance="10"
     gridtolerance="10"
     guidetolerance="10"
     inkscape:pageopacity="0"
     inkscape:pageshadow="2"
     inkscape:window-width="1440"
     inkscape:window-height="856"
     id="namedview5"
     showgrid="false"
     inkscape:zoom="16"
     inkscape:cx="28.264966"
     inkscape:cy="21.546432"
     inkscape:window-x="1599"
     inkscape:window-y="52"
     inkscape:window-maximized="0"
     inkscape:current-layer="Layer_1" /><path
     id="path4218"
     style="opacity:0.98000004;fill:#ffff00;fill-opacity:1;fill-rule:evenodd;stroke:#000000;stroke-width:0.04882812;stroke-opacity:1"
     d="m 33.386235,33.917911 0.561523,0.294802 2.514649,-0.02707 c 1.383056,-0.01489 2.70518,-0.04903 2.938053,-0.07587 0.526202,-0.06065 0.807836,-0.178662 1.082964,-0.45379 0.531259,-0.531258 0.481095,-1.363453 -0.142012,-2.355949 -0.43055,-0.685786 -1.028313,-1.366087 -2.633557,-2.997191 -1.205723,-1.225146 -1.549247,-1.602729 -1.655214,-1.819317 -0.234096,-0.478474 -0.245237,-0.457415 1.480566,-2.798353 1.302823,-1.767192 1.517275,-2.067979 2.019152,-2.832031 0.906885,-1.380634 1.313334,-2.267546 1.320134,-2.88086 0.0045,-0.404996 -0.08176,-0.616235 -0.368928,-0.903407 -0.367561,-0.367588 -0.356454,-0.366388 -3.577291,-0.363888 -2.960859,0.0023 -3.253558,0.01971 -3.661888,0.217383 -0.267827,0.129653 -0.378804,0.301827 -0.755419,1.171982 -1.086307,2.509876 -2.656454,5.089861 -3.66703,6.025476 -0.162389,0.150344 -0.311598,0.273353 -0.331568,0.273353 -0.01997,0 -0.08998,-0.104371 -0.15557,-0.231934 l -0.119256,-0.231934 -0.02705,-3.198242 c -0.02974,-3.51711 -0.01517,-3.351471 -0.339242,-3.856489 -0.301679,-0.470126 -0.625777,-0.656001 -1.465442,-0.840455 -0.484947,-0.106538 -0.609154,-0.112438 -2.294922,-0.110038 -2.876416,0.0042 -3.580553,0.146958 -4.21728,0.855152 -0.402931,0.448156 -0.471572,0.759496 -0.228485,1.036357 0.07924,0.09025 0.238546,0.204053 0.354004,0.252893 0.918788,0.388637 1.007304,0.470526 1.161869,1.074868 0.156175,0.610644 0.210725,1.403476 0.181455,2.637517 -0.03392,1.430379 -0.174547,2.268538 -0.441971,2.634262 -0.08807,0.120449 -0.14436,0.08409 -0.672803,-0.434615 -0.710468,-0.697378 -1.118947,-1.380698 -2.706305,-4.527222 -0.496789,-0.984756 -1.001129,-1.92342 -1.120756,-2.085921 -0.26322,-0.35756 -0.484278,-0.510754 -0.903478,-0.626115 -0.283634,-0.07809 -0.53545,-0.08659 -2.368164,-0.08049 -2.781826,0.0093 -3.139987,0.05947 -3.5612722,0.498927 -0.1703043,0.17765 -0.1944923,0.233051 -0.2129093,0.487671 -0.013206,0.182571 0.00931,0.39198 0.061798,0.574635 0.2002214,0.696817 1.4113655,3.248893 2.3841125,5.023712 2.065674,3.768908 4.413608,6.909054 6.30874,8.437359 1.618936,1.30557 3.698053,2.240564 5.385215,2.421767 0.622848,0.0669 2.84569,0.06918 3.300792,0.0034 0.426766,-0.06169 0.874879,-0.294195 1.060278,-0.55013 0.155113,-0.214127 0.258822,-0.638178 0.336722,-1.376848 0.102399,-0.970929 0.271465,-1.530318 0.549714,-1.818848 0.316072,-0.32775 0.554709,-0.187253 1.644264,0.968052 1.625428,1.723515 2.068394,2.107896 2.981804,2.58744 z M 24.826172,0.20507812 c -1.930759,0.0198919 -3.880296,0.26253827 -5.8125,0.7421875 C 13.870477,2.2240094 8.9839693,5.3560808 5.6777344,9.4960938 2.3154436,13.706301 0.45894576,18.671406 0.21484375,24.109375 -0.04961282,30.000796 1.9589704,36.009013 5.7675781,40.724609 9.8303758,45.754928 15.854181,49.0507 22.335938,49.789062 c 1.169943,0.133273 4.173385,0.141148 5.347656,0.01367 8.598301,-0.933411 16.043457,-6.128157 19.794922,-13.810546 1.878222,-3.84629 2.632309,-7.40253 2.498046,-11.767579 -0.146211,-4.75353 -1.444386,-8.841497 -4.09375,-12.878906 C 41.203974,4.2155401 33.192794,0.11887986 24.826172,0.20507812 Z" /></svg>